<?xml version="1.0"?>
<svg xmlns:rdf="http://www.w3.org/1999/02/22-rdf-syntax-ns#" xmlns="http://www.w3.org/2000/svg" xmlns:cc="http://creativecommons.org/ns#" xmlns:xlink="http://www.w3.org/1999/xlink" xmlns:dc="http://purl.org/dc/elements/1.1/" xmlns:svg="http://www.w3.org/2000/svg" id="svg2" viewBox="0 0 610 610" version="1.1">
  <g id="layer2">
    <path id="path3867" d="m181.81 80.566-26.522 39.932 1.0588 28.704-40.189 8.1937l-16.16 43.59 10.589 80.174-0.074 21.314 8.8406 34.849 88.159 72.447 22.926 32.749-0.25855 73.264 0.45 44.22h19.36l-6.51-112.26-11.89-21.38-14.727-24.211 53.413 25.56 38.76-27.796 28.171-26.033 11.401-16.776 38.884 7.8047-20.488 25.463 13.051 25.307-15.317 26.656-15.391-8.2974 7.7077 15.376-55.358-5.7305 36.23 116.32h97.68l-6.1487-95.78 14.923-33.942 29.329-73.847 13.101-85.671 5.9101-25.489-10.441-22.118 1.2314-36.587-17.459-43.536-36.396-15.195-17.706 10.579-26.817-28.211-35.978-2.3337-9.0868 8.2714-30.092-27.77-35.165-4.7711-24.995 24.452-24.478-27.33-43.538-0.15551zm3.7185 3.0338 3.9893 13.898 2.2655 11.928-0.41868 15.324-2.1916 12.343-24.231 11.046-3.7677-28.393zm86.411 16.439 16.45 15.376-13.199 35.575 7.3384 23.622 6.5257 43.536-8.4465 14.443-20.882-15.687-4.6788-33.708 14.578-42.836-10.293-20.536zm78.875 12.317 12.14 10.527-16.007 24.763 12.313 59.067 20.685-26.992-14.504 52.637-19.922 4.5896-17.509-12.576 12.165-97.858zm75.896 22.559-5.0975 20.666 1.773 15.765 11.131 28.548-14.751 26.215-16.77 3.3449-10.416-9.7755 23.148-73.77zm-305.02 29.228 13.334 4.8699 7.5846 24.737 3.0782-25.67 42.922-1.0631-9.5547 22.948-13.963 22.273-22.286 0.38897-16.868 14.054 14.751-3.0856 12.387 19.369-16.179 13.924 8.2496 12.654 21.99-2.1521-6.2056 26.215 17.755-13.25-8.3973 13.25 43.932 17.269 7.3138-18.125 3.9893 41.539l38.99-24.28-5.8602 74.579-47.409 9.4236-88.43-61.92-7.9905-29.49 1.1945-27.509-10.281-83.411zm265.4 112.68 46.025 11.564 0.41858 12.887-15.514 29.067-18.124 7.0788 11.131 18.514-39.45-12.446-16.376-43.665 31.2 18.228 19.109-17.814z" style="color:#000000" fill="#4a0"/>
  </g>
  <g id="layer1">
    <rect id="rect5840" stroke-linejoin="round" ry="1.5381" height="600" width="600" stroke="#4a0" y="5" x="5" stroke-width="10" fill="none"/>
    <path id="path3949" d="m201.36 80.515 14.849 6.612 12.854 21.055-39.745 28.756 28.886-8.0122 4.9251 35.186-24.946 45.143-46.714 18.021 3.6446 5.7305-6.9197 4.0449 13.667 2.8781-9.5547 25.385 21.104-2.7744-9.4316 19.94 11.106 0.078 11.82-31.141 32.038-4.2006 19.848-13.535-11.549 33.449 23.837 1.53 3.3736 34.616 39.154-12.965 4.6296 39.102-2.0686 13.535 21.646-23.103 10.023 15.817 9.9241 21.288-18.568-75.429 2.167-25.23 11.943 13.224 16.573 8.7123-6.2056-8.5308 2.5118-9.9569-0.46785-0.51861 54.865 10.009-8.2003-12.939 18.1-3.4746-19.282-25.203 19.208-56.241 7.0921-33.657-25.019-23.959-25.586-3.6562 22.557 9.5162 4.0139 33.734 6.8213-4.797-2.364 36.146-13.84 39.18-22.015 26.267-32.678-9.2828-2.832-3.1634 0.96044-18.436 11.697-99.258-8.5696-9.8013-22.237-19.836-28.984-3.4747 42.774 28.289-2.0931 30.701-0.34485 3.0338-8.9143 76.311-11.599 18.592-44.424-6.0158-9.5301-46.673 9.0621-25.696 7.1906-20.433-8.8159-18.28-3.3736-9.6977l-15.5-24.452-13.93-11.409-18.57-0.674zm236.63 55.308 16.204 11.876 9.5793 18.176-13.938 63.372-23.296 21.599-15.859 1.5039 6.378 18.617 11.672-1.53 32.776-10.579 5.3438 1.6336 2.4625 33.164-6.9444 10.501-5.5407 50.044-23.665-9.1013 10.392 36.846-17.927-1.5298 3.2013 14.391-21.424 66.25l5.33 98.95h22.155l-2.4868-96.117 17.632-52.429 27.605-55.23 7.56-36.042 0.074-54.322 6.0086-24.14-5.7624-23.389 0.54176-7.8826-3.0043-25.281-7.0921-22.429-17.952-20.225-20.021-6.6899z" style="color:#000000" fill="#250"/>
  </g>
  <metadata>
    <rdf:RDF>
      <cc:Work>
        <dc:format>image/svg+xml</dc:format>
        <dc:type rdf:resource="http://purl.org/dc/dcmitype/StillImage"/>
        <cc:license rdf:resource="http://creativecommons.org/licenses/publicdomain/"/>
        <dc:publisher>
          <cc:Agent rdf:about="http://openclipart.org/">
            <dc:title>Openclipart</dc:title>
          </cc:Agent>
        </dc:publisher>
        <dc:title>Eco green power icon</dc:title>
        <dc:date>2013-08-24T12:21:05</dc:date>
        <dc:description/>
        <dc:source>http://openclipart.org/detail/182184/eco-green-power-by-dominiquechappard-182184</dc:source>
        <dc:creator>
          <cc:Agent>
            <dc:title>dominiquechappard</dc:title>
          </cc:Agent>
        </dc:creator>
        <dc:subject>
          <rdf:Bag>
            <rdf:li>clipart_issue</rdf:li>
            <rdf:li>ecology</rdf:li>
            <rdf:li>fight</rdf:li>
            <rdf:li>fist</rdf:li>
            <rdf:li>green power</rdf:li>
          </rdf:Bag>
        </dc:subject>
      </cc:Work>
      <cc:License rdf:about="http://creativecommons.org/licenses/publicdomain/">
        <cc:permits rdf:resource="http://creativecommons.org/ns#Reproduction"/>
        <cc:permits rdf:resource="http://creativecommons.org/ns#Distribution"/>
        <cc:permits rdf:resource="http://creativecommons.org/ns#DerivativeWorks"/>
      </cc:License>
    </rdf:RDF>
  </metadata>
</svg>
